<mxfile host="app.diagrams.net" modified="2023-06-02T16:43:46.499Z" agent="Mozilla/5.0 (Windows NT 10.0; Win64; x64) AppleWebKit/537.36 (KHTML, like Gecko) Chrome/113.0.0.0 Safari/537.36 Edg/113.0.1774.57" etag="1wkS_0yS2WrfpciGrELe" version="21.3.2" type="device">
  <diagram name="Page-1" id="KrQHNCOEYRzQzY0TpuqV">
    <mxGraphModel dx="7800" dy="4460" grid="1" gridSize="10" guides="1" tooltips="1" connect="1" arrows="1" fold="1" page="1" pageScale="1" pageWidth="850" pageHeight="1100" math="0" shadow="0">
      <root>
        <mxCell id="0" />
        <mxCell id="1" parent="0" />
        <mxCell id="AG-kQNDHsoZw1lX50ARX-52" style="edgeStyle=orthogonalEdgeStyle;rounded=0;orthogonalLoop=1;jettySize=auto;html=1;exitX=0.5;exitY=1;exitDx=0;exitDy=0;exitPerimeter=0;entryX=0.5;entryY=0;entryDx=0;entryDy=0;" edge="1" parent="1" source="AG-kQNDHsoZw1lX50ARX-20" target="AG-kQNDHsoZw1lX50ARX-51">
          <mxGeometry relative="1" as="geometry" />
        </mxCell>
        <UserObject label="&lt;div style=&quot;font-size: 1px&quot;&gt;&lt;font style=&quot;font-size: 11.29px; direction: ltr; letter-spacing: 0px; line-height: 120%; opacity: 1;&quot;&gt;start&lt;/font&gt;&lt;/div&gt;" Function="EN_DIO_Error_T DIO_init(uint8_t pinNumber, EN_DIO_PORT_T portNumber, EN_DIO_DIRECTION_T direction);" tags="Flowchart" id="AG-kQNDHsoZw1lX50ARX-20">
          <mxCell style="verticalAlign=middle;align=center;overflow=width;vsdxID=30;fillColor=#dae8fc;shape=stencil(tVLREoIgEPwaHnEQxsl3s/9gEpSJwDko7e+DsEkze2l627vdu5uFRaxyHe8FosR5sCcxqMZ3iO0Rpcp0ApQPCLEasUpaEC3Yi2lS3fOojOhsr3HDmObyMtsVcYqS29Qh5FEfklwrM5OXeUa/yjkcAwfr7TDpiyTfXvjkMR+Vw2A998qaBac5tAKHU1hq3i4oNwjRr9ofvayt/+Rk+yX/4iWA159KpXWKxJx/z0Bopfyw+g4=);strokeColor=#6c8ebf;spacingTop=-1;spacingBottom=-1;spacingLeft=-1;spacingRight=-1;points=[[0.5,1,0],[0.5,0,0],[0,0.5,0],[1,0.5,0]];labelBackgroundColor=none;rounded=1;html=1;whiteSpace=wrap;fontFamily=Calibri;" vertex="1" parent="1">
            <mxGeometry x="-2355" y="-1610" width="101" height="38" as="geometry" />
          </mxCell>
        </UserObject>
        <mxCell id="AG-kQNDHsoZw1lX50ARX-21" value="sos_init" style="text;html=1;align=center;verticalAlign=middle;whiteSpace=wrap;rounded=0;strokeColor=#23445d;fillColor=#bac8d3;" vertex="1" parent="1">
          <mxGeometry x="-2359.24" y="-1670" width="109.49" height="30" as="geometry" />
        </mxCell>
        <mxCell id="AG-kQNDHsoZw1lX50ARX-50" value="false" style="edgeStyle=orthogonalEdgeStyle;rounded=0;orthogonalLoop=1;jettySize=auto;html=1;exitX=1;exitY=0.5;exitDx=0;exitDy=0;exitPerimeter=0;entryX=0;entryY=0.5;entryDx=0;entryDy=0;" edge="1" parent="1" source="AG-kQNDHsoZw1lX50ARX-22" target="AG-kQNDHsoZw1lX50ARX-49">
          <mxGeometry relative="1" as="geometry" />
        </mxCell>
        <UserObject label="if(sos_state ==) NOT_INITIALIZE" Function="EN_DIO_Error_T DIO_init(uint8_t pinNumber, EN_DIO_PORT_T portNumber, EN_DIO_DIRECTION_T direction);" tags="Flowchart" id="AG-kQNDHsoZw1lX50ARX-22">
          <mxCell style="vsdxID=219;fillColor=#fff2cc;shape=stencil(UzV2Ls5ILEhVNTIoLinKz04tz0wpyVA1dlE1MsrMy0gtyiwBslSNXVWNndPyi1LTi/JL81Ig/IJEkEoQKze/DGRCBUSfAUiHkUElhGcK4bpBVOZk5iGpNEVVikeloQHZpsK0YlWLz1QgA+HFtMycHEgIIcujBwlQCBKcxq4A);strokeColor=#d6b656;spacingTop=-1;spacingBottom=-1;spacingLeft=-1;spacingRight=-1;points=[[0,0.5,0],[1,0.5,0],[0.5,0,0],[0.5,1,0]];labelBackgroundColor=none;rounded=1;html=1;whiteSpace=wrap;fontFamily=Calibri;" vertex="1" parent="1">
            <mxGeometry x="-2374.5" y="-1471.5" width="140" height="93" as="geometry" />
          </mxCell>
        </UserObject>
        <mxCell id="AG-kQNDHsoZw1lX50ARX-23" value="&lt;div style=&quot;font-size: 1px&quot;&gt;&lt;br&gt;&lt;/div&gt;" style="text;vsdxID=219;fillColor=none;gradientColor=none;strokeColor=none;spacingTop=-1;spacingBottom=-1;spacingLeft=-1;spacingRight=-1;points=[[0,0.5,0],[1,0.5,0],[0.5,0,0],[0.5,1,0]];labelBackgroundColor=none;rounded=1;html=1;whiteSpace=wrap;verticalAlign=middle;align=center;overflow=width;;html=1;fontColor=#000000;fontFamily=Calibri;" vertex="1" parent="AG-kQNDHsoZw1lX50ARX-22">
          <mxGeometry x="11.740594059405941" y="11.416973684210525" width="117.36435643564356" height="69.93355263157895" as="geometry" />
        </mxCell>
        <mxCell id="AG-kQNDHsoZw1lX50ARX-48" style="edgeStyle=orthogonalEdgeStyle;rounded=0;orthogonalLoop=1;jettySize=auto;html=1;exitX=0.5;exitY=1;exitDx=0;exitDy=0;" edge="1" parent="1" source="AG-kQNDHsoZw1lX50ARX-25" target="AG-kQNDHsoZw1lX50ARX-28">
          <mxGeometry relative="1" as="geometry" />
        </mxCell>
        <mxCell id="AG-kQNDHsoZw1lX50ARX-25" value="index = 0" style="rounded=0;whiteSpace=wrap;html=1;fontSize=16;fillColor=#d5e8d4;strokeColor=#82b366;" vertex="1" parent="1">
          <mxGeometry x="-2354.12" y="-1330" width="99.25" height="44" as="geometry" />
        </mxCell>
        <mxCell id="AG-kQNDHsoZw1lX50ARX-32" value="true" style="edgeStyle=orthogonalEdgeStyle;rounded=0;orthogonalLoop=1;jettySize=auto;html=1;exitX=0.5;exitY=1;exitDx=0;exitDy=0;entryX=0.5;entryY=0;entryDx=0;entryDy=0;" edge="1" parent="1" source="AG-kQNDHsoZw1lX50ARX-28" target="AG-kQNDHsoZw1lX50ARX-30">
          <mxGeometry relative="1" as="geometry" />
        </mxCell>
        <mxCell id="AG-kQNDHsoZw1lX50ARX-46" value="false" style="edgeStyle=orthogonalEdgeStyle;rounded=0;orthogonalLoop=1;jettySize=auto;html=1;exitX=1;exitY=0.5;exitDx=0;exitDy=0;entryX=1;entryY=0.5;entryDx=0;entryDy=0;" edge="1" parent="1" source="AG-kQNDHsoZw1lX50ARX-28" target="AG-kQNDHsoZw1lX50ARX-37">
          <mxGeometry relative="1" as="geometry">
            <Array as="points">
              <mxPoint x="-2175" y="-1184" />
              <mxPoint x="-2175" y="-878" />
            </Array>
          </mxGeometry>
        </mxCell>
        <mxCell id="AG-kQNDHsoZw1lX50ARX-28" value="index &amp;lt; SCH_MAX_TASK" style="rhombus;whiteSpace=wrap;html=1;fillColor=#fff2cc;strokeColor=#d6b656;" vertex="1" parent="1">
          <mxGeometry x="-2369.5" y="-1235" width="130" height="102" as="geometry" />
        </mxCell>
        <mxCell id="AG-kQNDHsoZw1lX50ARX-33" style="edgeStyle=orthogonalEdgeStyle;rounded=0;orthogonalLoop=1;jettySize=auto;html=1;exitX=0.5;exitY=1;exitDx=0;exitDy=0;entryX=0.5;entryY=0;entryDx=0;entryDy=0;" edge="1" parent="1" source="AG-kQNDHsoZw1lX50ARX-30" target="AG-kQNDHsoZw1lX50ARX-31">
          <mxGeometry relative="1" as="geometry" />
        </mxCell>
        <mxCell id="AG-kQNDHsoZw1lX50ARX-30" value="initialize sos database to invalid values" style="shape=process;whiteSpace=wrap;html=1;backgroundOutline=1;fontSize=16;fillColor=#ffe6cc;strokeColor=#d79b00;" vertex="1" parent="1">
          <mxGeometry x="-2373.24" y="-1090" width="137.49" height="70" as="geometry" />
        </mxCell>
        <mxCell id="AG-kQNDHsoZw1lX50ARX-45" style="edgeStyle=orthogonalEdgeStyle;rounded=0;orthogonalLoop=1;jettySize=auto;html=1;exitX=0;exitY=0.5;exitDx=0;exitDy=0;entryX=0;entryY=0.5;entryDx=0;entryDy=0;" edge="1" parent="1" source="AG-kQNDHsoZw1lX50ARX-31" target="AG-kQNDHsoZw1lX50ARX-28">
          <mxGeometry relative="1" as="geometry">
            <Array as="points">
              <mxPoint x="-2445" y="-958" />
              <mxPoint x="-2445" y="-1184" />
            </Array>
          </mxGeometry>
        </mxCell>
        <mxCell id="AG-kQNDHsoZw1lX50ARX-31" value="index++" style="rounded=0;whiteSpace=wrap;html=1;fontSize=16;fillColor=#d5e8d4;strokeColor=#82b366;" vertex="1" parent="1">
          <mxGeometry x="-2355" y="-980" width="99.25" height="44" as="geometry" />
        </mxCell>
        <mxCell id="AG-kQNDHsoZw1lX50ARX-42" style="edgeStyle=orthogonalEdgeStyle;rounded=0;orthogonalLoop=1;jettySize=auto;html=1;exitX=0.5;exitY=1;exitDx=0;exitDy=0;entryX=0.5;entryY=0;entryDx=0;entryDy=0;" edge="1" parent="1" source="AG-kQNDHsoZw1lX50ARX-37" target="AG-kQNDHsoZw1lX50ARX-39">
          <mxGeometry relative="1" as="geometry" />
        </mxCell>
        <mxCell id="AG-kQNDHsoZw1lX50ARX-37" value="sos_state = INITIALIZE" style="rounded=0;whiteSpace=wrap;html=1;fontSize=16;fillColor=#d5e8d4;strokeColor=#82b366;" vertex="1" parent="1">
          <mxGeometry x="-2355" y="-900" width="99.25" height="44" as="geometry" />
        </mxCell>
        <mxCell id="AG-kQNDHsoZw1lX50ARX-43" style="edgeStyle=orthogonalEdgeStyle;rounded=0;orthogonalLoop=1;jettySize=auto;html=1;exitX=0.5;exitY=1;exitDx=0;exitDy=0;" edge="1" parent="1" source="AG-kQNDHsoZw1lX50ARX-39">
          <mxGeometry relative="1" as="geometry">
            <mxPoint x="-2306.25" y="-710" as="targetPoint" />
          </mxGeometry>
        </mxCell>
        <mxCell id="AG-kQNDHsoZw1lX50ARX-39" value="initialize timer" style="shape=process;whiteSpace=wrap;html=1;backgroundOutline=1;fontSize=16;fillColor=#ffe6cc;strokeColor=#d79b00;" vertex="1" parent="1">
          <mxGeometry x="-2374.5" y="-810" width="137.49" height="70" as="geometry" />
        </mxCell>
        <mxCell id="AG-kQNDHsoZw1lX50ARX-44" style="edgeStyle=orthogonalEdgeStyle;rounded=0;orthogonalLoop=1;jettySize=auto;html=1;exitX=0.5;exitY=1;exitDx=0;exitDy=0;entryX=0.5;entryY=0;entryDx=0;entryDy=0;" edge="1" parent="1" source="AG-kQNDHsoZw1lX50ARX-40" target="AG-kQNDHsoZw1lX50ARX-41">
          <mxGeometry relative="1" as="geometry" />
        </mxCell>
        <mxCell id="AG-kQNDHsoZw1lX50ARX-40" value="set timer tick time" style="shape=process;whiteSpace=wrap;html=1;backgroundOutline=1;fontSize=16;fillColor=#ffe6cc;strokeColor=#d79b00;" vertex="1" parent="1">
          <mxGeometry x="-2374.5" y="-708" width="137.49" height="70" as="geometry" />
        </mxCell>
        <mxCell id="AG-kQNDHsoZw1lX50ARX-56" style="edgeStyle=orthogonalEdgeStyle;rounded=0;orthogonalLoop=1;jettySize=auto;html=1;exitX=1;exitY=0.5;exitDx=0;exitDy=0;entryX=0.5;entryY=1;entryDx=0;entryDy=0;" edge="1" parent="1" source="AG-kQNDHsoZw1lX50ARX-41" target="AG-kQNDHsoZw1lX50ARX-54">
          <mxGeometry relative="1" as="geometry" />
        </mxCell>
        <mxCell id="AG-kQNDHsoZw1lX50ARX-41" value="set timer callback&amp;nbsp;" style="shape=process;whiteSpace=wrap;html=1;backgroundOutline=1;fontSize=16;fillColor=#ffe6cc;strokeColor=#d79b00;" vertex="1" parent="1">
          <mxGeometry x="-2374.5" y="-610" width="137.49" height="70" as="geometry" />
        </mxCell>
        <mxCell id="AG-kQNDHsoZw1lX50ARX-47" value="true" style="edgeStyle=orthogonalEdgeStyle;rounded=0;orthogonalLoop=1;jettySize=auto;html=1;entryX=0.5;entryY=0;entryDx=0;entryDy=0;" edge="1" parent="1" source="AG-kQNDHsoZw1lX50ARX-23" target="AG-kQNDHsoZw1lX50ARX-25">
          <mxGeometry relative="1" as="geometry" />
        </mxCell>
        <mxCell id="AG-kQNDHsoZw1lX50ARX-55" style="edgeStyle=orthogonalEdgeStyle;rounded=0;orthogonalLoop=1;jettySize=auto;html=1;exitX=0.5;exitY=1;exitDx=0;exitDy=0;entryX=0.5;entryY=0;entryDx=0;entryDy=0;" edge="1" parent="1" source="AG-kQNDHsoZw1lX50ARX-49" target="AG-kQNDHsoZw1lX50ARX-54">
          <mxGeometry relative="1" as="geometry" />
        </mxCell>
        <mxCell id="AG-kQNDHsoZw1lX50ARX-49" value="system_status = SOS_STATUS_INVALID" style="rounded=0;whiteSpace=wrap;html=1;fontSize=16;fillColor=#d5e8d4;strokeColor=#82b366;" vertex="1" parent="1">
          <mxGeometry x="-2135" y="-1447" width="180" height="44" as="geometry" />
        </mxCell>
        <mxCell id="AG-kQNDHsoZw1lX50ARX-53" style="edgeStyle=orthogonalEdgeStyle;rounded=0;orthogonalLoop=1;jettySize=auto;html=1;exitX=0.5;exitY=1;exitDx=0;exitDy=0;entryX=0.5;entryY=0;entryDx=0;entryDy=0;entryPerimeter=0;" edge="1" parent="1" source="AG-kQNDHsoZw1lX50ARX-51" target="AG-kQNDHsoZw1lX50ARX-22">
          <mxGeometry relative="1" as="geometry" />
        </mxCell>
        <mxCell id="AG-kQNDHsoZw1lX50ARX-51" value="system_status = SOS_STATUS_VALID" style="rounded=0;whiteSpace=wrap;html=1;fontSize=16;fillColor=#d5e8d4;strokeColor=#82b366;" vertex="1" parent="1">
          <mxGeometry x="-2394.5" y="-1541.5" width="180" height="44" as="geometry" />
        </mxCell>
        <mxCell id="AG-kQNDHsoZw1lX50ARX-58" style="edgeStyle=orthogonalEdgeStyle;rounded=0;orthogonalLoop=1;jettySize=auto;html=1;exitX=1;exitY=0.5;exitDx=0;exitDy=0;entryX=0;entryY=0.5;entryDx=0;entryDy=0;" edge="1" parent="1" source="AG-kQNDHsoZw1lX50ARX-54" target="AG-kQNDHsoZw1lX50ARX-57">
          <mxGeometry relative="1" as="geometry" />
        </mxCell>
        <mxCell id="AG-kQNDHsoZw1lX50ARX-54" value="" style="ellipse;whiteSpace=wrap;html=1;aspect=fixed;" vertex="1" parent="1">
          <mxGeometry x="-2085" y="-1077" width="80" height="80" as="geometry" />
        </mxCell>
        <mxCell id="AG-kQNDHsoZw1lX50ARX-57" value="return system_status" style="rounded=0;whiteSpace=wrap;html=1;fontSize=16;fillColor=#d5e8d4;strokeColor=#82b366;" vertex="1" parent="1">
          <mxGeometry x="-1945" y="-1061.5" width="130" height="49" as="geometry" />
        </mxCell>
        <mxCell id="AG-kQNDHsoZw1lX50ARX-59" style="edgeStyle=orthogonalEdgeStyle;rounded=0;orthogonalLoop=1;jettySize=auto;html=1;exitX=0.5;exitY=1;exitDx=0;exitDy=0;exitPerimeter=0;entryX=0.5;entryY=0;entryDx=0;entryDy=0;" edge="1" parent="1" source="AG-kQNDHsoZw1lX50ARX-60" target="AG-kQNDHsoZw1lX50ARX-86">
          <mxGeometry relative="1" as="geometry" />
        </mxCell>
        <UserObject label="&lt;div style=&quot;font-size: 1px&quot;&gt;&lt;font style=&quot;font-size: 11.29px; direction: ltr; letter-spacing: 0px; line-height: 120%; opacity: 1;&quot;&gt;start&lt;/font&gt;&lt;/div&gt;" Function="EN_DIO_Error_T DIO_init(uint8_t pinNumber, EN_DIO_PORT_T portNumber, EN_DIO_DIRECTION_T direction);" tags="Flowchart" id="AG-kQNDHsoZw1lX50ARX-60">
          <mxCell style="verticalAlign=middle;align=center;overflow=width;vsdxID=30;fillColor=#dae8fc;shape=stencil(tVLREoIgEPwaHnEQxsl3s/9gEpSJwDko7e+DsEkze2l627vdu5uFRaxyHe8FosR5sCcxqMZ3iO0Rpcp0ApQPCLEasUpaEC3Yi2lS3fOojOhsr3HDmObyMtsVcYqS29Qh5FEfklwrM5OXeUa/yjkcAwfr7TDpiyTfXvjkMR+Vw2A998qaBac5tAKHU1hq3i4oNwjRr9ofvayt/+Rk+yX/4iWA159KpXWKxJx/z0Bopfyw+g4=);strokeColor=#6c8ebf;spacingTop=-1;spacingBottom=-1;spacingLeft=-1;spacingRight=-1;points=[[0.5,1,0],[0.5,0,0],[0,0.5,0],[1,0.5,0]];labelBackgroundColor=none;rounded=1;html=1;whiteSpace=wrap;fontFamily=Calibri;" vertex="1" parent="1">
            <mxGeometry x="-2400.36" y="-360" width="101" height="38" as="geometry" />
          </mxCell>
        </UserObject>
        <mxCell id="AG-kQNDHsoZw1lX50ARX-61" value="sos_deinit" style="text;html=1;align=center;verticalAlign=middle;whiteSpace=wrap;rounded=0;strokeColor=#23445d;fillColor=#bac8d3;" vertex="1" parent="1">
          <mxGeometry x="-2404.6" y="-420" width="109.49" height="30" as="geometry" />
        </mxCell>
        <mxCell id="AG-kQNDHsoZw1lX50ARX-62" value="false" style="edgeStyle=orthogonalEdgeStyle;rounded=0;orthogonalLoop=1;jettySize=auto;html=1;exitX=1;exitY=0.5;exitDx=0;exitDy=0;exitPerimeter=0;entryX=0;entryY=0.5;entryDx=0;entryDy=0;" edge="1" parent="1" source="AG-kQNDHsoZw1lX50ARX-63" target="AG-kQNDHsoZw1lX50ARX-84">
          <mxGeometry relative="1" as="geometry" />
        </mxCell>
        <UserObject label="if(sos_state == INITIALIZE)" Function="EN_DIO_Error_T DIO_init(uint8_t pinNumber, EN_DIO_PORT_T portNumber, EN_DIO_DIRECTION_T direction);" tags="Flowchart" id="AG-kQNDHsoZw1lX50ARX-63">
          <mxCell style="vsdxID=219;fillColor=#fff2cc;shape=stencil(UzV2Ls5ILEhVNTIoLinKz04tz0wpyVA1dlE1MsrMy0gtyiwBslSNXVWNndPyi1LTi/JL81Ig/IJEkEoQKze/DGRCBUSfAUiHkUElhGcK4bpBVOZk5iGpNEVVikeloQHZpsK0YlWLz1QgA+HFtMycHEgIIcujBwlQCBKcxq4A);strokeColor=#d6b656;spacingTop=-1;spacingBottom=-1;spacingLeft=-1;spacingRight=-1;points=[[0,0.5,0],[1,0.5,0],[0.5,0,0],[0.5,1,0]];labelBackgroundColor=none;rounded=1;html=1;whiteSpace=wrap;fontFamily=Calibri;" vertex="1" parent="1">
            <mxGeometry x="-2419.86" y="-221.5" width="140" height="93" as="geometry" />
          </mxCell>
        </UserObject>
        <mxCell id="AG-kQNDHsoZw1lX50ARX-64" value="&lt;div style=&quot;font-size: 1px&quot;&gt;&lt;br&gt;&lt;/div&gt;" style="text;vsdxID=219;fillColor=none;gradientColor=none;strokeColor=none;spacingTop=-1;spacingBottom=-1;spacingLeft=-1;spacingRight=-1;points=[[0,0.5,0],[1,0.5,0],[0.5,0,0],[0.5,1,0]];labelBackgroundColor=none;rounded=1;html=1;whiteSpace=wrap;verticalAlign=middle;align=center;overflow=width;;html=1;fontColor=#000000;fontFamily=Calibri;" vertex="1" parent="AG-kQNDHsoZw1lX50ARX-63">
          <mxGeometry x="11.740594059405941" y="11.416973684210525" width="117.36435643564356" height="69.93355263157895" as="geometry" />
        </mxCell>
        <mxCell id="AG-kQNDHsoZw1lX50ARX-65" style="edgeStyle=orthogonalEdgeStyle;rounded=0;orthogonalLoop=1;jettySize=auto;html=1;exitX=0.5;exitY=1;exitDx=0;exitDy=0;" edge="1" parent="1" source="AG-kQNDHsoZw1lX50ARX-66" target="AG-kQNDHsoZw1lX50ARX-69">
          <mxGeometry relative="1" as="geometry" />
        </mxCell>
        <mxCell id="AG-kQNDHsoZw1lX50ARX-66" value="index = 0" style="rounded=0;whiteSpace=wrap;html=1;fontSize=16;fillColor=#d5e8d4;strokeColor=#82b366;" vertex="1" parent="1">
          <mxGeometry x="-2399.48" y="-80" width="99.25" height="44" as="geometry" />
        </mxCell>
        <mxCell id="AG-kQNDHsoZw1lX50ARX-67" value="true" style="edgeStyle=orthogonalEdgeStyle;rounded=0;orthogonalLoop=1;jettySize=auto;html=1;exitX=0.5;exitY=1;exitDx=0;exitDy=0;entryX=0.5;entryY=0;entryDx=0;entryDy=0;" edge="1" parent="1" source="AG-kQNDHsoZw1lX50ARX-69" target="AG-kQNDHsoZw1lX50ARX-71">
          <mxGeometry relative="1" as="geometry" />
        </mxCell>
        <mxCell id="AG-kQNDHsoZw1lX50ARX-68" value="false" style="edgeStyle=orthogonalEdgeStyle;rounded=0;orthogonalLoop=1;jettySize=auto;html=1;exitX=1;exitY=0.5;exitDx=0;exitDy=0;entryX=1;entryY=0.5;entryDx=0;entryDy=0;" edge="1" parent="1" source="AG-kQNDHsoZw1lX50ARX-69" target="AG-kQNDHsoZw1lX50ARX-75">
          <mxGeometry relative="1" as="geometry">
            <Array as="points">
              <mxPoint x="-2220.36" y="66" />
              <mxPoint x="-2220.36" y="372" />
            </Array>
          </mxGeometry>
        </mxCell>
        <mxCell id="AG-kQNDHsoZw1lX50ARX-69" value="index &amp;lt; SCH_MAX_TASK" style="rhombus;whiteSpace=wrap;html=1;fillColor=#fff2cc;strokeColor=#d6b656;" vertex="1" parent="1">
          <mxGeometry x="-2414.86" y="15" width="130" height="102" as="geometry" />
        </mxCell>
        <mxCell id="AG-kQNDHsoZw1lX50ARX-70" style="edgeStyle=orthogonalEdgeStyle;rounded=0;orthogonalLoop=1;jettySize=auto;html=1;exitX=0.5;exitY=1;exitDx=0;exitDy=0;entryX=0.5;entryY=0;entryDx=0;entryDy=0;" edge="1" parent="1" source="AG-kQNDHsoZw1lX50ARX-71" target="AG-kQNDHsoZw1lX50ARX-73">
          <mxGeometry relative="1" as="geometry" />
        </mxCell>
        <mxCell id="AG-kQNDHsoZw1lX50ARX-71" value="initialize sos database to invalid values" style="shape=process;whiteSpace=wrap;html=1;backgroundOutline=1;fontSize=16;fillColor=#ffe6cc;strokeColor=#d79b00;" vertex="1" parent="1">
          <mxGeometry x="-2418.6" y="160" width="137.49" height="70" as="geometry" />
        </mxCell>
        <mxCell id="AG-kQNDHsoZw1lX50ARX-72" style="edgeStyle=orthogonalEdgeStyle;rounded=0;orthogonalLoop=1;jettySize=auto;html=1;exitX=0;exitY=0.5;exitDx=0;exitDy=0;entryX=0;entryY=0.5;entryDx=0;entryDy=0;" edge="1" parent="1" source="AG-kQNDHsoZw1lX50ARX-73" target="AG-kQNDHsoZw1lX50ARX-69">
          <mxGeometry relative="1" as="geometry">
            <Array as="points">
              <mxPoint x="-2490.36" y="292" />
              <mxPoint x="-2490.36" y="66" />
            </Array>
          </mxGeometry>
        </mxCell>
        <mxCell id="AG-kQNDHsoZw1lX50ARX-73" value="index++" style="rounded=0;whiteSpace=wrap;html=1;fontSize=16;fillColor=#d5e8d4;strokeColor=#82b366;" vertex="1" parent="1">
          <mxGeometry x="-2400.36" y="270" width="99.25" height="44" as="geometry" />
        </mxCell>
        <mxCell id="AG-kQNDHsoZw1lX50ARX-90" style="edgeStyle=orthogonalEdgeStyle;rounded=0;orthogonalLoop=1;jettySize=auto;html=1;exitX=0.5;exitY=1;exitDx=0;exitDy=0;entryX=0.5;entryY=1;entryDx=0;entryDy=0;" edge="1" parent="1" source="AG-kQNDHsoZw1lX50ARX-75" target="AG-kQNDHsoZw1lX50ARX-88">
          <mxGeometry relative="1" as="geometry">
            <Array as="points">
              <mxPoint x="-2354.36" y="440" />
              <mxPoint x="-2090.36" y="440" />
            </Array>
          </mxGeometry>
        </mxCell>
        <mxCell id="AG-kQNDHsoZw1lX50ARX-75" value="sos_state = NOT_INITIALIZE" style="rounded=0;whiteSpace=wrap;html=1;fontSize=16;fillColor=#d5e8d4;strokeColor=#82b366;" vertex="1" parent="1">
          <mxGeometry x="-2424.11" y="350" width="139.25" height="44" as="geometry" />
        </mxCell>
        <mxCell id="AG-kQNDHsoZw1lX50ARX-82" value="true" style="edgeStyle=orthogonalEdgeStyle;rounded=0;orthogonalLoop=1;jettySize=auto;html=1;entryX=0.5;entryY=0;entryDx=0;entryDy=0;" edge="1" parent="1" source="AG-kQNDHsoZw1lX50ARX-64" target="AG-kQNDHsoZw1lX50ARX-66">
          <mxGeometry relative="1" as="geometry" />
        </mxCell>
        <mxCell id="AG-kQNDHsoZw1lX50ARX-83" style="edgeStyle=orthogonalEdgeStyle;rounded=0;orthogonalLoop=1;jettySize=auto;html=1;exitX=0.5;exitY=1;exitDx=0;exitDy=0;entryX=0.5;entryY=0;entryDx=0;entryDy=0;" edge="1" parent="1" source="AG-kQNDHsoZw1lX50ARX-84" target="AG-kQNDHsoZw1lX50ARX-88">
          <mxGeometry relative="1" as="geometry" />
        </mxCell>
        <mxCell id="AG-kQNDHsoZw1lX50ARX-84" value="system_status = SOS_STATUS_INVALID" style="rounded=0;whiteSpace=wrap;html=1;fontSize=16;fillColor=#d5e8d4;strokeColor=#82b366;" vertex="1" parent="1">
          <mxGeometry x="-2180.36" y="-197" width="180" height="44" as="geometry" />
        </mxCell>
        <mxCell id="AG-kQNDHsoZw1lX50ARX-85" style="edgeStyle=orthogonalEdgeStyle;rounded=0;orthogonalLoop=1;jettySize=auto;html=1;exitX=0.5;exitY=1;exitDx=0;exitDy=0;entryX=0.5;entryY=0;entryDx=0;entryDy=0;entryPerimeter=0;" edge="1" parent="1" source="AG-kQNDHsoZw1lX50ARX-86" target="AG-kQNDHsoZw1lX50ARX-63">
          <mxGeometry relative="1" as="geometry" />
        </mxCell>
        <mxCell id="AG-kQNDHsoZw1lX50ARX-86" value="system_status = SOS_STATUS_VALID" style="rounded=0;whiteSpace=wrap;html=1;fontSize=16;fillColor=#d5e8d4;strokeColor=#82b366;" vertex="1" parent="1">
          <mxGeometry x="-2439.86" y="-291.5" width="180" height="44" as="geometry" />
        </mxCell>
        <mxCell id="AG-kQNDHsoZw1lX50ARX-87" style="edgeStyle=orthogonalEdgeStyle;rounded=0;orthogonalLoop=1;jettySize=auto;html=1;exitX=1;exitY=0.5;exitDx=0;exitDy=0;entryX=0;entryY=0.5;entryDx=0;entryDy=0;" edge="1" parent="1" source="AG-kQNDHsoZw1lX50ARX-88" target="AG-kQNDHsoZw1lX50ARX-89">
          <mxGeometry relative="1" as="geometry" />
        </mxCell>
        <mxCell id="AG-kQNDHsoZw1lX50ARX-88" value="" style="ellipse;whiteSpace=wrap;html=1;aspect=fixed;" vertex="1" parent="1">
          <mxGeometry x="-2130.36" y="173" width="80" height="80" as="geometry" />
        </mxCell>
        <mxCell id="AG-kQNDHsoZw1lX50ARX-89" value="return system_status" style="rounded=0;whiteSpace=wrap;html=1;fontSize=16;fillColor=#d5e8d4;strokeColor=#82b366;" vertex="1" parent="1">
          <mxGeometry x="-1990.36" y="188.5" width="130" height="49" as="geometry" />
        </mxCell>
        <mxCell id="AG-kQNDHsoZw1lX50ARX-115" style="edgeStyle=orthogonalEdgeStyle;rounded=0;orthogonalLoop=1;jettySize=auto;html=1;exitX=0.5;exitY=1;exitDx=0;exitDy=0;" edge="1" parent="1" source="AG-kQNDHsoZw1lX50ARX-91" target="AG-kQNDHsoZw1lX50ARX-92">
          <mxGeometry relative="1" as="geometry" />
        </mxCell>
        <mxCell id="AG-kQNDHsoZw1lX50ARX-91" value="sos_create_task" style="text;html=1;align=center;verticalAlign=middle;whiteSpace=wrap;rounded=0;strokeColor=#23445d;fillColor=#bac8d3;" vertex="1" parent="1">
          <mxGeometry x="-1423.0699999999997" y="-1679" width="109.49" height="30" as="geometry" />
        </mxCell>
        <mxCell id="AG-kQNDHsoZw1lX50ARX-114" style="edgeStyle=orthogonalEdgeStyle;rounded=0;orthogonalLoop=1;jettySize=auto;html=1;exitX=0.5;exitY=1;exitDx=0;exitDy=0;exitPerimeter=0;entryX=0.5;entryY=0;entryDx=0;entryDy=0;" edge="1" parent="1" source="AG-kQNDHsoZw1lX50ARX-92" target="AG-kQNDHsoZw1lX50ARX-112">
          <mxGeometry relative="1" as="geometry" />
        </mxCell>
        <UserObject label="&lt;div style=&quot;font-size: 1px&quot;&gt;&lt;font style=&quot;font-size: 11.29px; direction: ltr; letter-spacing: 0px; line-height: 120%; opacity: 1;&quot;&gt;start&lt;/font&gt;&lt;/div&gt;" Function="EN_DIO_Error_T DIO_init(uint8_t pinNumber, EN_DIO_PORT_T portNumber, EN_DIO_DIRECTION_T direction);" tags="Flowchart" id="AG-kQNDHsoZw1lX50ARX-92">
          <mxCell style="verticalAlign=middle;align=center;overflow=width;vsdxID=30;fillColor=#dae8fc;shape=stencil(tVLREoIgEPwaHnEQxsl3s/9gEpSJwDko7e+DsEkze2l627vdu5uFRaxyHe8FosR5sCcxqMZ3iO0Rpcp0ApQPCLEasUpaEC3Yi2lS3fOojOhsr3HDmObyMtsVcYqS29Qh5FEfklwrM5OXeUa/yjkcAwfr7TDpiyTfXvjkMR+Vw2A998qaBac5tAKHU1hq3i4oNwjRr9ofvayt/+Rk+yX/4iWA159KpXWKxJx/z0Bopfyw+g4=);strokeColor=#6c8ebf;spacingTop=-1;spacingBottom=-1;spacingLeft=-1;spacingRight=-1;points=[[0.5,1,0],[0.5,0,0],[0,0.5,0],[1,0.5,0]];labelBackgroundColor=none;rounded=1;html=1;whiteSpace=wrap;fontFamily=Calibri;" vertex="1" parent="1">
            <mxGeometry x="-1417.9499999999998" y="-1619" width="101" height="38" as="geometry" />
          </mxCell>
        </UserObject>
        <mxCell id="AG-kQNDHsoZw1lX50ARX-104" value="true" style="edgeStyle=orthogonalEdgeStyle;rounded=0;orthogonalLoop=1;jettySize=auto;html=1;exitX=0.5;exitY=1;exitDx=0;exitDy=0;entryX=0.5;entryY=0;entryDx=0;entryDy=0;" edge="1" parent="1" source="AG-kQNDHsoZw1lX50ARX-93" target="AG-kQNDHsoZw1lX50ARX-103">
          <mxGeometry relative="1" as="geometry" />
        </mxCell>
        <mxCell id="AG-kQNDHsoZw1lX50ARX-107" value="false" style="edgeStyle=orthogonalEdgeStyle;rounded=0;orthogonalLoop=1;jettySize=auto;html=1;exitX=0;exitY=0.5;exitDx=0;exitDy=0;entryX=0.5;entryY=0;entryDx=0;entryDy=0;" edge="1" parent="1" source="AG-kQNDHsoZw1lX50ARX-93" target="AG-kQNDHsoZw1lX50ARX-106">
          <mxGeometry x="-0.3334" relative="1" as="geometry">
            <Array as="points">
              <mxPoint x="-1508.58" y="-1287" />
              <mxPoint x="-1508.58" y="-1109" />
              <mxPoint x="-1371.58" y="-1109" />
            </Array>
            <mxPoint as="offset" />
          </mxGeometry>
        </mxCell>
        <mxCell id="AG-kQNDHsoZw1lX50ARX-93" value="while&amp;nbsp;&lt;br&gt;sos_database[index].task != null&lt;br&gt;&amp;amp;&amp;amp;&lt;br&gt;index &amp;lt; SCH_MAX_TASK" style="rhombus;whiteSpace=wrap;html=1;fillColor=#fff2cc;strokeColor=#d6b656;" vertex="1" parent="1">
          <mxGeometry x="-1488.6899999999998" y="-1346" width="240.74" height="117" as="geometry" />
        </mxCell>
        <mxCell id="AG-kQNDHsoZw1lX50ARX-102" style="edgeStyle=orthogonalEdgeStyle;rounded=0;orthogonalLoop=1;jettySize=auto;html=1;exitX=0.5;exitY=1;exitDx=0;exitDy=0;entryX=0.5;entryY=0;entryDx=0;entryDy=0;" edge="1" parent="1" source="AG-kQNDHsoZw1lX50ARX-100" target="AG-kQNDHsoZw1lX50ARX-93">
          <mxGeometry relative="1" as="geometry" />
        </mxCell>
        <mxCell id="AG-kQNDHsoZw1lX50ARX-100" value="index = 0" style="rounded=0;whiteSpace=wrap;html=1;fontSize=16;fillColor=#d5e8d4;strokeColor=#82b366;" vertex="1" parent="1">
          <mxGeometry x="-1417.9499999999998" y="-1456" width="99.25" height="44" as="geometry" />
        </mxCell>
        <mxCell id="AG-kQNDHsoZw1lX50ARX-105" style="edgeStyle=orthogonalEdgeStyle;rounded=0;orthogonalLoop=1;jettySize=auto;html=1;exitX=1;exitY=0.5;exitDx=0;exitDy=0;entryX=1;entryY=0.5;entryDx=0;entryDy=0;" edge="1" parent="1" source="AG-kQNDHsoZw1lX50ARX-103" target="AG-kQNDHsoZw1lX50ARX-93">
          <mxGeometry relative="1" as="geometry">
            <Array as="points">
              <mxPoint x="-1202.58" y="-1167" />
              <mxPoint x="-1202.58" y="-1288" />
            </Array>
          </mxGeometry>
        </mxCell>
        <mxCell id="AG-kQNDHsoZw1lX50ARX-103" value="index ++" style="rounded=0;whiteSpace=wrap;html=1;fontSize=16;fillColor=#d5e8d4;strokeColor=#82b366;" vertex="1" parent="1">
          <mxGeometry x="-1416.9499999999998" y="-1189" width="99.25" height="44" as="geometry" />
        </mxCell>
        <mxCell id="AG-kQNDHsoZw1lX50ARX-109" value="true" style="edgeStyle=orthogonalEdgeStyle;rounded=0;orthogonalLoop=1;jettySize=auto;html=1;exitX=1;exitY=0.5;exitDx=0;exitDy=0;entryX=0;entryY=0.5;entryDx=0;entryDy=0;" edge="1" parent="1" source="AG-kQNDHsoZw1lX50ARX-106" target="AG-kQNDHsoZw1lX50ARX-108">
          <mxGeometry relative="1" as="geometry" />
        </mxCell>
        <mxCell id="AG-kQNDHsoZw1lX50ARX-111" value="false" style="edgeStyle=orthogonalEdgeStyle;rounded=0;orthogonalLoop=1;jettySize=auto;html=1;exitX=0;exitY=0.5;exitDx=0;exitDy=0;" edge="1" parent="1" source="AG-kQNDHsoZw1lX50ARX-106">
          <mxGeometry relative="1" as="geometry">
            <mxPoint x="-1532.58" y="-977.666666666667" as="targetPoint" />
          </mxGeometry>
        </mxCell>
        <mxCell id="AG-kQNDHsoZw1lX50ARX-106" value="if&lt;br&gt;(index ==SCH_MAX_TASK)" style="rhombus;whiteSpace=wrap;html=1;fillColor=#fff2cc;strokeColor=#d6b656;" vertex="1" parent="1">
          <mxGeometry x="-1467.08" y="-1029" width="190.49" height="102" as="geometry" />
        </mxCell>
        <mxCell id="AG-kQNDHsoZw1lX50ARX-117" style="edgeStyle=orthogonalEdgeStyle;rounded=0;orthogonalLoop=1;jettySize=auto;html=1;exitX=0.5;exitY=1;exitDx=0;exitDy=0;entryX=1;entryY=0.5;entryDx=0;entryDy=0;" edge="1" parent="1" source="AG-kQNDHsoZw1lX50ARX-108" target="AG-kQNDHsoZw1lX50ARX-116">
          <mxGeometry relative="1" as="geometry" />
        </mxCell>
        <mxCell id="AG-kQNDHsoZw1lX50ARX-108" value="system_status = SOS_STATUS_INVALID" style="rounded=0;whiteSpace=wrap;html=1;fontSize=16;fillColor=#d5e8d4;strokeColor=#82b366;" vertex="1" parent="1">
          <mxGeometry x="-1197.58" y="-1000" width="180" height="44" as="geometry" />
        </mxCell>
        <mxCell id="AG-kQNDHsoZw1lX50ARX-118" style="edgeStyle=orthogonalEdgeStyle;rounded=0;orthogonalLoop=1;jettySize=auto;html=1;exitX=0.5;exitY=1;exitDx=0;exitDy=0;entryX=0;entryY=0.5;entryDx=0;entryDy=0;" edge="1" parent="1" source="AG-kQNDHsoZw1lX50ARX-110" target="AG-kQNDHsoZw1lX50ARX-116">
          <mxGeometry relative="1" as="geometry" />
        </mxCell>
        <mxCell id="AG-kQNDHsoZw1lX50ARX-110" value="copy task parameters into sos database" style="shape=process;whiteSpace=wrap;html=1;backgroundOutline=1;fontSize=16;fillColor=#ffe6cc;strokeColor=#d79b00;" vertex="1" parent="1">
          <mxGeometry x="-1672.5799999999997" y="-1013" width="137.49" height="70" as="geometry" />
        </mxCell>
        <mxCell id="AG-kQNDHsoZw1lX50ARX-113" style="edgeStyle=orthogonalEdgeStyle;rounded=0;orthogonalLoop=1;jettySize=auto;html=1;exitX=0.5;exitY=1;exitDx=0;exitDy=0;" edge="1" parent="1" source="AG-kQNDHsoZw1lX50ARX-112" target="AG-kQNDHsoZw1lX50ARX-100">
          <mxGeometry relative="1" as="geometry" />
        </mxCell>
        <mxCell id="AG-kQNDHsoZw1lX50ARX-112" value="system_status = SOS_STATUS_VALID" style="rounded=0;whiteSpace=wrap;html=1;fontSize=16;fillColor=#d5e8d4;strokeColor=#82b366;" vertex="1" parent="1">
          <mxGeometry x="-1458.32" y="-1539" width="180" height="44" as="geometry" />
        </mxCell>
        <mxCell id="AG-kQNDHsoZw1lX50ARX-121" style="edgeStyle=orthogonalEdgeStyle;rounded=0;orthogonalLoop=1;jettySize=auto;html=1;exitX=0.5;exitY=1;exitDx=0;exitDy=0;" edge="1" parent="1" source="AG-kQNDHsoZw1lX50ARX-116" target="AG-kQNDHsoZw1lX50ARX-120">
          <mxGeometry relative="1" as="geometry" />
        </mxCell>
        <mxCell id="AG-kQNDHsoZw1lX50ARX-116" value="" style="ellipse;whiteSpace=wrap;html=1;aspect=fixed;" vertex="1" parent="1">
          <mxGeometry x="-1398.3199999999997" y="-889" width="60" height="60" as="geometry" />
        </mxCell>
        <mxCell id="AG-kQNDHsoZw1lX50ARX-120" value="return system_status" style="rounded=0;whiteSpace=wrap;html=1;fontSize=16;fillColor=#d5e8d4;strokeColor=#82b366;" vertex="1" parent="1">
          <mxGeometry x="-1432.32" y="-789" width="130" height="49" as="geometry" />
        </mxCell>
        <mxCell id="AG-kQNDHsoZw1lX50ARX-122" style="edgeStyle=orthogonalEdgeStyle;rounded=0;orthogonalLoop=1;jettySize=auto;html=1;exitX=0.5;exitY=1;exitDx=0;exitDy=0;" edge="1" parent="1" source="AG-kQNDHsoZw1lX50ARX-123" target="AG-kQNDHsoZw1lX50ARX-125">
          <mxGeometry relative="1" as="geometry" />
        </mxCell>
        <mxCell id="AG-kQNDHsoZw1lX50ARX-123" value="sos_delete_task" style="text;html=1;align=center;verticalAlign=middle;whiteSpace=wrap;rounded=0;strokeColor=#23445d;fillColor=#bac8d3;" vertex="1" parent="1">
          <mxGeometry x="-2345.3399999999997" y="520" width="109.49" height="30" as="geometry" />
        </mxCell>
        <mxCell id="AG-kQNDHsoZw1lX50ARX-124" style="edgeStyle=orthogonalEdgeStyle;rounded=0;orthogonalLoop=1;jettySize=auto;html=1;exitX=0.5;exitY=1;exitDx=0;exitDy=0;exitPerimeter=0;entryX=0.5;entryY=0;entryDx=0;entryDy=0;" edge="1" parent="1" source="AG-kQNDHsoZw1lX50ARX-125" target="AG-kQNDHsoZw1lX50ARX-141">
          <mxGeometry relative="1" as="geometry" />
        </mxCell>
        <UserObject label="&lt;div style=&quot;font-size: 1px&quot;&gt;&lt;font style=&quot;font-size: 11.29px; direction: ltr; letter-spacing: 0px; line-height: 120%; opacity: 1;&quot;&gt;start&lt;/font&gt;&lt;/div&gt;" Function="EN_DIO_Error_T DIO_init(uint8_t pinNumber, EN_DIO_PORT_T portNumber, EN_DIO_DIRECTION_T direction);" tags="Flowchart" id="AG-kQNDHsoZw1lX50ARX-125">
          <mxCell style="verticalAlign=middle;align=center;overflow=width;vsdxID=30;fillColor=#dae8fc;shape=stencil(tVLREoIgEPwaHnEQxsl3s/9gEpSJwDko7e+DsEkze2l627vdu5uFRaxyHe8FosR5sCcxqMZ3iO0Rpcp0ApQPCLEasUpaEC3Yi2lS3fOojOhsr3HDmObyMtsVcYqS29Qh5FEfklwrM5OXeUa/yjkcAwfr7TDpiyTfXvjkMR+Vw2A998qaBac5tAKHU1hq3i4oNwjRr9ofvayt/+Rk+yX/4iWA159KpXWKxJx/z0Bopfyw+g4=);strokeColor=#6c8ebf;spacingTop=-1;spacingBottom=-1;spacingLeft=-1;spacingRight=-1;points=[[0.5,1,0],[0.5,0,0],[0,0.5,0],[1,0.5,0]];labelBackgroundColor=none;rounded=1;html=1;whiteSpace=wrap;fontFamily=Calibri;" vertex="1" parent="1">
            <mxGeometry x="-2340.22" y="580" width="101" height="38" as="geometry" />
          </mxCell>
        </UserObject>
        <mxCell id="AG-kQNDHsoZw1lX50ARX-133" value="false" style="edgeStyle=orthogonalEdgeStyle;rounded=0;orthogonalLoop=1;jettySize=auto;html=1;exitX=1;exitY=0.5;exitDx=0;exitDy=0;entryX=0;entryY=0.5;entryDx=0;entryDy=0;" edge="1" parent="1" source="AG-kQNDHsoZw1lX50ARX-135" target="AG-kQNDHsoZw1lX50ARX-137">
          <mxGeometry relative="1" as="geometry" />
        </mxCell>
        <mxCell id="AG-kQNDHsoZw1lX50ARX-134" value="true" style="edgeStyle=orthogonalEdgeStyle;rounded=0;orthogonalLoop=1;jettySize=auto;html=1;exitX=0;exitY=0.5;exitDx=0;exitDy=0;" edge="1" parent="1" source="AG-kQNDHsoZw1lX50ARX-135">
          <mxGeometry relative="1" as="geometry">
            <mxPoint x="-2454.85" y="811.333333333333" as="targetPoint" />
          </mxGeometry>
        </mxCell>
        <mxCell id="AG-kQNDHsoZw1lX50ARX-135" value="if&amp;nbsp;&lt;br style=&quot;border-color: var(--border-color);&quot;&gt;(sos_database[index].task != null)" style="rhombus;whiteSpace=wrap;html=1;fillColor=#fff2cc;strokeColor=#d6b656;" vertex="1" parent="1">
          <mxGeometry x="-2385.8399999999997" y="746" width="190.49" height="130" as="geometry" />
        </mxCell>
        <mxCell id="AG-kQNDHsoZw1lX50ARX-136" style="edgeStyle=orthogonalEdgeStyle;rounded=0;orthogonalLoop=1;jettySize=auto;html=1;exitX=0.5;exitY=1;exitDx=0;exitDy=0;entryX=1;entryY=0.5;entryDx=0;entryDy=0;" edge="1" parent="1" source="AG-kQNDHsoZw1lX50ARX-137" target="AG-kQNDHsoZw1lX50ARX-143">
          <mxGeometry relative="1" as="geometry" />
        </mxCell>
        <mxCell id="AG-kQNDHsoZw1lX50ARX-137" value="system_status = SOS_STATUS_INVALID" style="rounded=0;whiteSpace=wrap;html=1;fontSize=16;fillColor=#d5e8d4;strokeColor=#82b366;" vertex="1" parent="1">
          <mxGeometry x="-2119.85" y="789" width="180" height="44" as="geometry" />
        </mxCell>
        <mxCell id="AG-kQNDHsoZw1lX50ARX-138" style="edgeStyle=orthogonalEdgeStyle;rounded=0;orthogonalLoop=1;jettySize=auto;html=1;exitX=0.5;exitY=1;exitDx=0;exitDy=0;entryX=0;entryY=0.5;entryDx=0;entryDy=0;" edge="1" parent="1" source="AG-kQNDHsoZw1lX50ARX-139" target="AG-kQNDHsoZw1lX50ARX-143">
          <mxGeometry relative="1" as="geometry" />
        </mxCell>
        <mxCell id="AG-kQNDHsoZw1lX50ARX-139" value="delete task from sos database" style="shape=process;whiteSpace=wrap;html=1;backgroundOutline=1;fontSize=16;fillColor=#ffe6cc;strokeColor=#d79b00;" vertex="1" parent="1">
          <mxGeometry x="-2594.85" y="776" width="137.49" height="70" as="geometry" />
        </mxCell>
        <mxCell id="AG-kQNDHsoZw1lX50ARX-147" style="edgeStyle=orthogonalEdgeStyle;rounded=0;orthogonalLoop=1;jettySize=auto;html=1;exitX=0.5;exitY=1;exitDx=0;exitDy=0;entryX=0.5;entryY=0;entryDx=0;entryDy=0;" edge="1" parent="1" source="AG-kQNDHsoZw1lX50ARX-141" target="AG-kQNDHsoZw1lX50ARX-135">
          <mxGeometry relative="1" as="geometry" />
        </mxCell>
        <mxCell id="AG-kQNDHsoZw1lX50ARX-141" value="system_status = SOS_STATUS_VALID" style="rounded=0;whiteSpace=wrap;html=1;fontSize=16;fillColor=#d5e8d4;strokeColor=#82b366;" vertex="1" parent="1">
          <mxGeometry x="-2380.5899999999997" y="660" width="180" height="44" as="geometry" />
        </mxCell>
        <mxCell id="AG-kQNDHsoZw1lX50ARX-142" style="edgeStyle=orthogonalEdgeStyle;rounded=0;orthogonalLoop=1;jettySize=auto;html=1;exitX=0.5;exitY=1;exitDx=0;exitDy=0;" edge="1" parent="1" source="AG-kQNDHsoZw1lX50ARX-143" target="AG-kQNDHsoZw1lX50ARX-144">
          <mxGeometry relative="1" as="geometry" />
        </mxCell>
        <mxCell id="AG-kQNDHsoZw1lX50ARX-143" value="" style="ellipse;whiteSpace=wrap;html=1;aspect=fixed;" vertex="1" parent="1">
          <mxGeometry x="-2320.5899999999997" y="900" width="60" height="60" as="geometry" />
        </mxCell>
        <mxCell id="AG-kQNDHsoZw1lX50ARX-144" value="return system_status" style="rounded=0;whiteSpace=wrap;html=1;fontSize=16;fillColor=#d5e8d4;strokeColor=#82b366;" vertex="1" parent="1">
          <mxGeometry x="-2354.5899999999997" y="1000" width="130" height="49" as="geometry" />
        </mxCell>
        <mxCell id="AG-kQNDHsoZw1lX50ARX-148" style="edgeStyle=orthogonalEdgeStyle;rounded=0;orthogonalLoop=1;jettySize=auto;html=1;exitX=0.5;exitY=1;exitDx=0;exitDy=0;" edge="1" parent="1" source="AG-kQNDHsoZw1lX50ARX-149" target="AG-kQNDHsoZw1lX50ARX-151">
          <mxGeometry relative="1" as="geometry" />
        </mxCell>
        <mxCell id="AG-kQNDHsoZw1lX50ARX-149" value="sos_modify_task" style="text;html=1;align=center;verticalAlign=middle;whiteSpace=wrap;rounded=0;strokeColor=#23445d;fillColor=#bac8d3;" vertex="1" parent="1">
          <mxGeometry x="-640.4899999999998" y="-1671.5" width="109.49" height="30" as="geometry" />
        </mxCell>
        <mxCell id="AG-kQNDHsoZw1lX50ARX-150" style="edgeStyle=orthogonalEdgeStyle;rounded=0;orthogonalLoop=1;jettySize=auto;html=1;exitX=0.5;exitY=1;exitDx=0;exitDy=0;exitPerimeter=0;entryX=0.5;entryY=0;entryDx=0;entryDy=0;" edge="1" parent="1" source="AG-kQNDHsoZw1lX50ARX-151" target="AG-kQNDHsoZw1lX50ARX-167">
          <mxGeometry relative="1" as="geometry" />
        </mxCell>
        <UserObject label="&lt;div style=&quot;font-size: 1px&quot;&gt;&lt;font style=&quot;font-size: 11.29px; direction: ltr; letter-spacing: 0px; line-height: 120%; opacity: 1;&quot;&gt;start&lt;/font&gt;&lt;/div&gt;" Function="EN_DIO_Error_T DIO_init(uint8_t pinNumber, EN_DIO_PORT_T portNumber, EN_DIO_DIRECTION_T direction);" tags="Flowchart" id="AG-kQNDHsoZw1lX50ARX-151">
          <mxCell style="verticalAlign=middle;align=center;overflow=width;vsdxID=30;fillColor=#dae8fc;shape=stencil(tVLREoIgEPwaHnEQxsl3s/9gEpSJwDko7e+DsEkze2l627vdu5uFRaxyHe8FosR5sCcxqMZ3iO0Rpcp0ApQPCLEasUpaEC3Yi2lS3fOojOhsr3HDmObyMtsVcYqS29Qh5FEfklwrM5OXeUa/yjkcAwfr7TDpiyTfXvjkMR+Vw2A998qaBac5tAKHU1hq3i4oNwjRr9ofvayt/+Rk+yX/4iWA159KpXWKxJx/z0Bopfyw+g4=);strokeColor=#6c8ebf;spacingTop=-1;spacingBottom=-1;spacingLeft=-1;spacingRight=-1;points=[[0.5,1,0],[0.5,0,0],[0,0.5,0],[1,0.5,0]];labelBackgroundColor=none;rounded=1;html=1;whiteSpace=wrap;fontFamily=Calibri;" vertex="1" parent="1">
            <mxGeometry x="-635.3699999999999" y="-1611.5" width="101" height="38" as="geometry" />
          </mxCell>
        </UserObject>
        <mxCell id="AG-kQNDHsoZw1lX50ARX-180" value="true" style="edgeStyle=orthogonalEdgeStyle;rounded=0;orthogonalLoop=1;jettySize=auto;html=1;exitX=0.5;exitY=1;exitDx=0;exitDy=0;entryX=0.5;entryY=0;entryDx=0;entryDy=0;" edge="1" parent="1" source="AG-kQNDHsoZw1lX50ARX-154" target="AG-kQNDHsoZw1lX50ARX-175">
          <mxGeometry relative="1" as="geometry" />
        </mxCell>
        <mxCell id="AG-kQNDHsoZw1lX50ARX-185" value="false" style="edgeStyle=orthogonalEdgeStyle;rounded=0;orthogonalLoop=1;jettySize=auto;html=1;exitX=1;exitY=0.5;exitDx=0;exitDy=0;entryX=0.5;entryY=0;entryDx=0;entryDy=0;" edge="1" parent="1" source="AG-kQNDHsoZw1lX50ARX-154" target="AG-kQNDHsoZw1lX50ARX-161">
          <mxGeometry relative="1" as="geometry">
            <Array as="points">
              <mxPoint x="-40" y="-1234.5" />
              <mxPoint x="-40" y="-931.5" />
              <mxPoint x="-391" y="-931.5" />
            </Array>
          </mxGeometry>
        </mxCell>
        <mxCell id="AG-kQNDHsoZw1lX50ARX-154" value="index &amp;lt; SCH_MAX_TASK" style="rhombus;whiteSpace=wrap;html=1;fillColor=#fff2cc;strokeColor=#d6b656;" vertex="1" parent="1">
          <mxGeometry x="-448.43000000000006" y="-1278.5" width="116.11" height="87" as="geometry" />
        </mxCell>
        <mxCell id="AG-kQNDHsoZw1lX50ARX-193" style="edgeStyle=orthogonalEdgeStyle;rounded=0;orthogonalLoop=1;jettySize=auto;html=1;exitX=0.5;exitY=1;exitDx=0;exitDy=0;entryX=0.5;entryY=0;entryDx=0;entryDy=0;" edge="1" parent="1" source="AG-kQNDHsoZw1lX50ARX-156" target="AG-kQNDHsoZw1lX50ARX-154">
          <mxGeometry relative="1" as="geometry" />
        </mxCell>
        <mxCell id="AG-kQNDHsoZw1lX50ARX-156" value="index = 0" style="rounded=0;whiteSpace=wrap;html=1;fontSize=16;fillColor=#d5e8d4;strokeColor=#82b366;" vertex="1" parent="1">
          <mxGeometry x="-440" y="-1375.5" width="99.25" height="44" as="geometry" />
        </mxCell>
        <mxCell id="AG-kQNDHsoZw1lX50ARX-182" style="edgeStyle=orthogonalEdgeStyle;rounded=0;orthogonalLoop=1;jettySize=auto;html=1;exitX=0;exitY=0.5;exitDx=0;exitDy=0;entryX=0;entryY=0.5;entryDx=0;entryDy=0;" edge="1" parent="1" source="AG-kQNDHsoZw1lX50ARX-158" target="AG-kQNDHsoZw1lX50ARX-154">
          <mxGeometry relative="1" as="geometry">
            <Array as="points">
              <mxPoint x="-520" y="-989.5" />
              <mxPoint x="-520" y="-1234.5" />
            </Array>
          </mxGeometry>
        </mxCell>
        <mxCell id="AG-kQNDHsoZw1lX50ARX-158" value="index ++" style="rounded=0;whiteSpace=wrap;html=1;fontSize=16;fillColor=#d5e8d4;strokeColor=#82b366;" vertex="1" parent="1">
          <mxGeometry x="-440" y="-1011.5" width="99.25" height="44" as="geometry" />
        </mxCell>
        <mxCell id="AG-kQNDHsoZw1lX50ARX-159" value="true" style="edgeStyle=orthogonalEdgeStyle;rounded=0;orthogonalLoop=1;jettySize=auto;html=1;exitX=1;exitY=0.5;exitDx=0;exitDy=0;entryX=0;entryY=0.5;entryDx=0;entryDy=0;" edge="1" parent="1" source="AG-kQNDHsoZw1lX50ARX-161" target="AG-kQNDHsoZw1lX50ARX-163">
          <mxGeometry relative="1" as="geometry" />
        </mxCell>
        <mxCell id="AG-kQNDHsoZw1lX50ARX-161" value="if&lt;br&gt;(index ==SCH_MAX_TASK)" style="rhombus;whiteSpace=wrap;html=1;fillColor=#fff2cc;strokeColor=#d6b656;" vertex="1" parent="1">
          <mxGeometry x="-486.77" y="-891.5" width="190.49" height="102" as="geometry" />
        </mxCell>
        <mxCell id="AG-kQNDHsoZw1lX50ARX-190" style="edgeStyle=orthogonalEdgeStyle;rounded=0;orthogonalLoop=1;jettySize=auto;html=1;exitX=0.5;exitY=1;exitDx=0;exitDy=0;entryX=1;entryY=0.5;entryDx=0;entryDy=0;" edge="1" parent="1" source="AG-kQNDHsoZw1lX50ARX-163" target="AG-kQNDHsoZw1lX50ARX-186">
          <mxGeometry relative="1" as="geometry">
            <Array as="points">
              <mxPoint x="-127" y="-781.5" />
              <mxPoint x="-716" y="-781.5" />
            </Array>
          </mxGeometry>
        </mxCell>
        <mxCell id="AG-kQNDHsoZw1lX50ARX-163" value="system_status = SOS_STATUS_INVALID" style="rounded=0;whiteSpace=wrap;html=1;fontSize=16;fillColor=#d5e8d4;strokeColor=#82b366;" vertex="1" parent="1">
          <mxGeometry x="-217.26999999999998" y="-862.5" width="180" height="44" as="geometry" />
        </mxCell>
        <mxCell id="AG-kQNDHsoZw1lX50ARX-194" style="edgeStyle=orthogonalEdgeStyle;rounded=0;orthogonalLoop=1;jettySize=auto;html=1;exitX=0.5;exitY=1;exitDx=0;exitDy=0;entryX=0.5;entryY=0;entryDx=0;entryDy=0;" edge="1" parent="1" source="AG-kQNDHsoZw1lX50ARX-167" target="AG-kQNDHsoZw1lX50ARX-171">
          <mxGeometry relative="1" as="geometry" />
        </mxCell>
        <mxCell id="AG-kQNDHsoZw1lX50ARX-167" value="system_status = SOS_STATUS_VALID" style="rounded=0;whiteSpace=wrap;html=1;fontSize=16;fillColor=#d5e8d4;strokeColor=#82b366;" vertex="1" parent="1">
          <mxGeometry x="-675.74" y="-1531.5" width="180" height="44" as="geometry" />
        </mxCell>
        <mxCell id="AG-kQNDHsoZw1lX50ARX-170" value="return system_status" style="rounded=0;whiteSpace=wrap;html=1;fontSize=16;fillColor=#d5e8d4;strokeColor=#82b366;" vertex="1" parent="1">
          <mxGeometry x="-825.75" y="-711.5" width="130" height="49" as="geometry" />
        </mxCell>
        <mxCell id="AG-kQNDHsoZw1lX50ARX-172" value="true" style="edgeStyle=orthogonalEdgeStyle;rounded=0;orthogonalLoop=1;jettySize=auto;html=1;exitX=1;exitY=0.5;exitDx=0;exitDy=0;entryX=0.5;entryY=0;entryDx=0;entryDy=0;" edge="1" parent="1" source="AG-kQNDHsoZw1lX50ARX-171" target="AG-kQNDHsoZw1lX50ARX-156">
          <mxGeometry relative="1" as="geometry" />
        </mxCell>
        <mxCell id="AG-kQNDHsoZw1lX50ARX-174" value="false" style="edgeStyle=orthogonalEdgeStyle;rounded=0;orthogonalLoop=1;jettySize=auto;html=1;exitX=0;exitY=0.5;exitDx=0;exitDy=0;" edge="1" parent="1" source="AG-kQNDHsoZw1lX50ARX-171" target="AG-kQNDHsoZw1lX50ARX-173">
          <mxGeometry relative="1" as="geometry" />
        </mxCell>
        <mxCell id="AG-kQNDHsoZw1lX50ARX-171" value="if&lt;br&gt;task != null" style="rhombus;whiteSpace=wrap;html=1;fillColor=#fff2cc;strokeColor=#d6b656;" vertex="1" parent="1">
          <mxGeometry x="-647.1099999999999" y="-1462.5" width="116.11" height="87" as="geometry" />
        </mxCell>
        <mxCell id="AG-kQNDHsoZw1lX50ARX-189" style="edgeStyle=orthogonalEdgeStyle;rounded=0;orthogonalLoop=1;jettySize=auto;html=1;exitX=0.5;exitY=1;exitDx=0;exitDy=0;entryX=0;entryY=0.5;entryDx=0;entryDy=0;" edge="1" parent="1" source="AG-kQNDHsoZw1lX50ARX-173" target="AG-kQNDHsoZw1lX50ARX-186">
          <mxGeometry relative="1" as="geometry">
            <Array as="points">
              <mxPoint x="-750" y="-1201.5" />
              <mxPoint x="-860" y="-1201.5" />
              <mxPoint x="-860" y="-778.5" />
            </Array>
          </mxGeometry>
        </mxCell>
        <mxCell id="AG-kQNDHsoZw1lX50ARX-173" value="system_status = SOS_STATUS_INVALID" style="rounded=0;whiteSpace=wrap;html=1;fontSize=16;fillColor=#d5e8d4;strokeColor=#82b366;" vertex="1" parent="1">
          <mxGeometry x="-840" y="-1371.5" width="180" height="44" as="geometry" />
        </mxCell>
        <mxCell id="AG-kQNDHsoZw1lX50ARX-177" value="true" style="edgeStyle=orthogonalEdgeStyle;rounded=0;orthogonalLoop=1;jettySize=auto;html=1;exitX=1;exitY=0.5;exitDx=0;exitDy=0;entryX=0;entryY=0.5;entryDx=0;entryDy=0;" edge="1" parent="1" source="AG-kQNDHsoZw1lX50ARX-175" target="AG-kQNDHsoZw1lX50ARX-176">
          <mxGeometry relative="1" as="geometry" />
        </mxCell>
        <mxCell id="AG-kQNDHsoZw1lX50ARX-181" value="false" style="edgeStyle=orthogonalEdgeStyle;rounded=0;orthogonalLoop=1;jettySize=auto;html=1;exitX=0.5;exitY=1;exitDx=0;exitDy=0;entryX=0.5;entryY=0;entryDx=0;entryDy=0;" edge="1" parent="1" source="AG-kQNDHsoZw1lX50ARX-175" target="AG-kQNDHsoZw1lX50ARX-158">
          <mxGeometry relative="1" as="geometry" />
        </mxCell>
        <mxCell id="AG-kQNDHsoZw1lX50ARX-175" value="if&lt;br&gt;(sos_database[index].task == task_id)" style="rhombus;whiteSpace=wrap;html=1;fillColor=#fff2cc;strokeColor=#d6b656;" vertex="1" parent="1">
          <mxGeometry x="-486.77" y="-1151.5" width="192.79" height="87" as="geometry" />
        </mxCell>
        <mxCell id="AG-kQNDHsoZw1lX50ARX-179" style="edgeStyle=orthogonalEdgeStyle;rounded=0;orthogonalLoop=1;jettySize=auto;html=1;exitX=0.5;exitY=1;exitDx=0;exitDy=0;entryX=0.5;entryY=0;entryDx=0;entryDy=0;" edge="1" parent="1" source="AG-kQNDHsoZw1lX50ARX-176" target="AG-kQNDHsoZw1lX50ARX-178">
          <mxGeometry relative="1" as="geometry" />
        </mxCell>
        <mxCell id="AG-kQNDHsoZw1lX50ARX-176" value="copy new task parameters into task index" style="shape=process;whiteSpace=wrap;html=1;backgroundOutline=1;fontSize=16;fillColor=#ffe6cc;strokeColor=#d79b00;" vertex="1" parent="1">
          <mxGeometry x="-224.99999999999977" y="-1143" width="137.49" height="70" as="geometry" />
        </mxCell>
        <mxCell id="AG-kQNDHsoZw1lX50ARX-187" style="edgeStyle=orthogonalEdgeStyle;rounded=0;orthogonalLoop=1;jettySize=auto;html=1;exitX=0;exitY=0.5;exitDx=0;exitDy=0;entryX=0.5;entryY=0;entryDx=0;entryDy=0;" edge="1" parent="1" source="AG-kQNDHsoZw1lX50ARX-178" target="AG-kQNDHsoZw1lX50ARX-186">
          <mxGeometry relative="1" as="geometry">
            <Array as="points">
              <mxPoint x="-206" y="-951.5" />
              <mxPoint x="-761" y="-951.5" />
            </Array>
          </mxGeometry>
        </mxCell>
        <mxCell id="AG-kQNDHsoZw1lX50ARX-178" value="break" style="rounded=0;whiteSpace=wrap;html=1;fontSize=16;fillColor=#d5e8d4;strokeColor=#82b366;" vertex="1" parent="1">
          <mxGeometry x="-205.88" y="-1021.5" width="99.25" height="44" as="geometry" />
        </mxCell>
        <mxCell id="AG-kQNDHsoZw1lX50ARX-191" style="edgeStyle=orthogonalEdgeStyle;rounded=0;orthogonalLoop=1;jettySize=auto;html=1;exitX=0.5;exitY=1;exitDx=0;exitDy=0;entryX=0.5;entryY=0;entryDx=0;entryDy=0;" edge="1" parent="1" source="AG-kQNDHsoZw1lX50ARX-186" target="AG-kQNDHsoZw1lX50ARX-170">
          <mxGeometry relative="1" as="geometry" />
        </mxCell>
        <mxCell id="AG-kQNDHsoZw1lX50ARX-186" value="" style="ellipse;whiteSpace=wrap;html=1;aspect=fixed;" vertex="1" parent="1">
          <mxGeometry x="-800.75" y="-818.5" width="80" height="80" as="geometry" />
        </mxCell>
        <mxCell id="AG-kQNDHsoZw1lX50ARX-197" style="edgeStyle=orthogonalEdgeStyle;rounded=0;orthogonalLoop=1;jettySize=auto;html=1;exitX=0.5;exitY=1;exitDx=0;exitDy=0;" edge="1" parent="1" source="AG-kQNDHsoZw1lX50ARX-198" target="AG-kQNDHsoZw1lX50ARX-199">
          <mxGeometry relative="1" as="geometry" />
        </mxCell>
        <mxCell id="AG-kQNDHsoZw1lX50ARX-198" value="sos_run" style="text;html=1;align=center;verticalAlign=middle;whiteSpace=wrap;rounded=0;strokeColor=#23445d;fillColor=#bac8d3;" vertex="1" parent="1">
          <mxGeometry x="-1474.38" y="-400" width="109.49" height="30" as="geometry" />
        </mxCell>
        <mxCell id="AG-kQNDHsoZw1lX50ARX-202" style="edgeStyle=orthogonalEdgeStyle;rounded=0;orthogonalLoop=1;jettySize=auto;html=1;exitX=0.5;exitY=1;exitDx=0;exitDy=0;exitPerimeter=0;entryX=0.5;entryY=0;entryDx=0;entryDy=0;" edge="1" parent="1" source="AG-kQNDHsoZw1lX50ARX-199" target="AG-kQNDHsoZw1lX50ARX-201">
          <mxGeometry relative="1" as="geometry" />
        </mxCell>
        <UserObject label="&lt;div style=&quot;font-size: 1px&quot;&gt;&lt;font style=&quot;font-size: 11.29px; direction: ltr; letter-spacing: 0px; line-height: 120%; opacity: 1;&quot;&gt;start&lt;/font&gt;&lt;/div&gt;" Function="EN_DIO_Error_T DIO_init(uint8_t pinNumber, EN_DIO_PORT_T portNumber, EN_DIO_DIRECTION_T direction);" tags="Flowchart" id="AG-kQNDHsoZw1lX50ARX-199">
          <mxCell style="verticalAlign=middle;align=center;overflow=width;vsdxID=30;fillColor=#dae8fc;shape=stencil(tVLREoIgEPwaHnEQxsl3s/9gEpSJwDko7e+DsEkze2l627vdu5uFRaxyHe8FosR5sCcxqMZ3iO0Rpcp0ApQPCLEasUpaEC3Yi2lS3fOojOhsr3HDmObyMtsVcYqS29Qh5FEfklwrM5OXeUa/yjkcAwfr7TDpiyTfXvjkMR+Vw2A998qaBac5tAKHU1hq3i4oNwjRr9ofvayt/+Rk+yX/4iWA159KpXWKxJx/z0Bopfyw+g4=);strokeColor=#6c8ebf;spacingTop=-1;spacingBottom=-1;spacingLeft=-1;spacingRight=-1;points=[[0.5,1,0],[0.5,0,0],[0,0.5,0],[1,0.5,0]];labelBackgroundColor=none;rounded=1;html=1;whiteSpace=wrap;fontFamily=Calibri;" vertex="1" parent="1">
            <mxGeometry x="-1469.2600000000002" y="-340" width="101" height="38" as="geometry" />
          </mxCell>
        </UserObject>
        <mxCell id="AG-kQNDHsoZw1lX50ARX-201" value="tmr_resume" style="shape=process;whiteSpace=wrap;html=1;backgroundOutline=1;fontSize=16;fillColor=#ffe6cc;strokeColor=#d79b00;" vertex="1" parent="1">
          <mxGeometry x="-1488.38" y="-250" width="137.49" height="40" as="geometry" />
        </mxCell>
        <mxCell id="AG-kQNDHsoZw1lX50ARX-260" style="edgeStyle=orthogonalEdgeStyle;rounded=0;orthogonalLoop=1;jettySize=auto;html=1;exitX=0.5;exitY=1;exitDx=0;exitDy=0;entryX=0.5;entryY=0;entryDx=0;entryDy=0;" edge="1" parent="1" source="AG-kQNDHsoZw1lX50ARX-203" target="AG-kQNDHsoZw1lX50ARX-204">
          <mxGeometry relative="1" as="geometry" />
        </mxCell>
        <mxCell id="AG-kQNDHsoZw1lX50ARX-203" value="while ( 1 )" style="rhombus;whiteSpace=wrap;html=1;fillColor=#fff2cc;strokeColor=#d6b656;" vertex="1" parent="1">
          <mxGeometry x="-1475.4200000000005" y="-170" width="110.53" height="90" as="geometry" />
        </mxCell>
        <mxCell id="AG-kQNDHsoZw1lX50ARX-207" style="edgeStyle=orthogonalEdgeStyle;rounded=0;orthogonalLoop=1;jettySize=auto;html=1;exitX=0.5;exitY=1;exitDx=0;exitDy=0;entryX=0.5;entryY=0;entryDx=0;entryDy=0;" edge="1" parent="1" source="AG-kQNDHsoZw1lX50ARX-204" target="AG-kQNDHsoZw1lX50ARX-206">
          <mxGeometry relative="1" as="geometry" />
        </mxCell>
        <mxCell id="AG-kQNDHsoZw1lX50ARX-204" value="index = 0" style="rounded=0;whiteSpace=wrap;html=1;fontSize=16;fillColor=#d5e8d4;strokeColor=#82b366;" vertex="1" parent="1">
          <mxGeometry x="-1469.63" y="-50" width="99.25" height="44" as="geometry" />
        </mxCell>
        <mxCell id="AG-kQNDHsoZw1lX50ARX-228" value="true" style="edgeStyle=orthogonalEdgeStyle;rounded=0;orthogonalLoop=1;jettySize=auto;html=1;exitX=0.5;exitY=1;exitDx=0;exitDy=0;entryX=0.5;entryY=0;entryDx=0;entryDy=0;" edge="1" parent="1" source="AG-kQNDHsoZw1lX50ARX-206" target="AG-kQNDHsoZw1lX50ARX-208">
          <mxGeometry relative="1" as="geometry" />
        </mxCell>
        <mxCell id="AG-kQNDHsoZw1lX50ARX-259" value="false" style="edgeStyle=orthogonalEdgeStyle;rounded=0;orthogonalLoop=1;jettySize=auto;html=1;exitX=1;exitY=0.5;exitDx=0;exitDy=0;" edge="1" parent="1" source="AG-kQNDHsoZw1lX50ARX-206" target="AG-kQNDHsoZw1lX50ARX-229">
          <mxGeometry relative="1" as="geometry">
            <Array as="points">
              <mxPoint x="-834.63" y="75" />
              <mxPoint x="-834.63" y="640" />
            </Array>
          </mxGeometry>
        </mxCell>
        <mxCell id="AG-kQNDHsoZw1lX50ARX-206" value="index &amp;lt; SCH_MAX_TASK" style="rhombus;whiteSpace=wrap;html=1;fillColor=#fff2cc;strokeColor=#d6b656;" vertex="1" parent="1">
          <mxGeometry x="-1499.2700000000004" y="30" width="161" height="90" as="geometry" />
        </mxCell>
        <mxCell id="AG-kQNDHsoZw1lX50ARX-215" value="true" style="edgeStyle=orthogonalEdgeStyle;rounded=0;orthogonalLoop=1;jettySize=auto;html=1;exitX=1;exitY=0.5;exitDx=0;exitDy=0;entryX=0.5;entryY=0;entryDx=0;entryDy=0;" edge="1" parent="1" source="AG-kQNDHsoZw1lX50ARX-208" target="AG-kQNDHsoZw1lX50ARX-209">
          <mxGeometry relative="1" as="geometry" />
        </mxCell>
        <mxCell id="AG-kQNDHsoZw1lX50ARX-226" value="false" style="edgeStyle=orthogonalEdgeStyle;rounded=0;orthogonalLoop=1;jettySize=auto;html=1;exitX=0;exitY=0.5;exitDx=0;exitDy=0;entryX=1;entryY=0.5;entryDx=0;entryDy=0;" edge="1" parent="1" source="AG-kQNDHsoZw1lX50ARX-208" target="AG-kQNDHsoZw1lX50ARX-225">
          <mxGeometry relative="1" as="geometry" />
        </mxCell>
        <mxCell id="AG-kQNDHsoZw1lX50ARX-208" value="IF(sos_database[index].state == ready)" style="rhombus;whiteSpace=wrap;html=1;fillColor=#fff2cc;strokeColor=#d6b656;" vertex="1" parent="1">
          <mxGeometry x="-1526.7800000000002" y="190" width="216.03" height="80" as="geometry" />
        </mxCell>
        <mxCell id="AG-kQNDHsoZw1lX50ARX-216" style="edgeStyle=orthogonalEdgeStyle;rounded=0;orthogonalLoop=1;jettySize=auto;html=1;exitX=0.5;exitY=1;exitDx=0;exitDy=0;entryX=0.5;entryY=0;entryDx=0;entryDy=0;" edge="1" parent="1" source="AG-kQNDHsoZw1lX50ARX-209" target="AG-kQNDHsoZw1lX50ARX-210">
          <mxGeometry relative="1" as="geometry" />
        </mxCell>
        <mxCell id="AG-kQNDHsoZw1lX50ARX-209" value="run_task" style="shape=process;whiteSpace=wrap;html=1;backgroundOutline=1;fontSize=16;fillColor=#ffe6cc;strokeColor=#d79b00;" vertex="1" parent="1">
          <mxGeometry x="-1262.8600000000001" y="250" width="137.49" height="40" as="geometry" />
        </mxCell>
        <mxCell id="AG-kQNDHsoZw1lX50ARX-214" style="edgeStyle=orthogonalEdgeStyle;rounded=0;orthogonalLoop=1;jettySize=auto;html=1;exitX=0.5;exitY=1;exitDx=0;exitDy=0;entryX=0.5;entryY=0;entryDx=0;entryDy=0;" edge="1" parent="1" source="AG-kQNDHsoZw1lX50ARX-210" target="AG-kQNDHsoZw1lX50ARX-211">
          <mxGeometry relative="1" as="geometry" />
        </mxCell>
        <mxCell id="AG-kQNDHsoZw1lX50ARX-210" value="sos_database[index].state = wait" style="rounded=0;whiteSpace=wrap;html=1;fontSize=16;fillColor=#d5e8d4;strokeColor=#82b366;" vertex="1" parent="1">
          <mxGeometry x="-1323.7400000000002" y="320" width="255.5" height="44" as="geometry" />
        </mxCell>
        <mxCell id="AG-kQNDHsoZw1lX50ARX-213" value="true" style="edgeStyle=orthogonalEdgeStyle;rounded=0;orthogonalLoop=1;jettySize=auto;html=1;exitX=1;exitY=0.5;exitDx=0;exitDy=0;entryX=0;entryY=0.5;entryDx=0;entryDy=0;" edge="1" parent="1" source="AG-kQNDHsoZw1lX50ARX-211" target="AG-kQNDHsoZw1lX50ARX-212">
          <mxGeometry relative="1" as="geometry" />
        </mxCell>
        <mxCell id="AG-kQNDHsoZw1lX50ARX-220" style="edgeStyle=orthogonalEdgeStyle;rounded=0;orthogonalLoop=1;jettySize=auto;html=1;exitX=0.5;exitY=1;exitDx=0;exitDy=0;entryX=0.5;entryY=0;entryDx=0;entryDy=0;" edge="1" parent="1" source="AG-kQNDHsoZw1lX50ARX-211" target="AG-kQNDHsoZw1lX50ARX-219">
          <mxGeometry relative="1" as="geometry" />
        </mxCell>
        <mxCell id="AG-kQNDHsoZw1lX50ARX-211" value="IF(sos_database[index].period == 0)" style="rhombus;whiteSpace=wrap;html=1;fillColor=#fff2cc;strokeColor=#d6b656;" vertex="1" parent="1">
          <mxGeometry x="-1302.3600000000006" y="400" width="216.03" height="80" as="geometry" />
        </mxCell>
        <mxCell id="AG-kQNDHsoZw1lX50ARX-221" style="edgeStyle=orthogonalEdgeStyle;rounded=0;orthogonalLoop=1;jettySize=auto;html=1;exitX=0.5;exitY=1;exitDx=0;exitDy=0;entryX=1;entryY=0.5;entryDx=0;entryDy=0;" edge="1" parent="1" source="AG-kQNDHsoZw1lX50ARX-212" target="AG-kQNDHsoZw1lX50ARX-219">
          <mxGeometry relative="1" as="geometry" />
        </mxCell>
        <mxCell id="AG-kQNDHsoZw1lX50ARX-212" value="delete_task" style="shape=process;whiteSpace=wrap;html=1;backgroundOutline=1;fontSize=16;fillColor=#ffe6cc;strokeColor=#d79b00;" vertex="1" parent="1">
          <mxGeometry x="-1031.8600000000001" y="420" width="137.49" height="40" as="geometry" />
        </mxCell>
        <mxCell id="AG-kQNDHsoZw1lX50ARX-217" value="break" style="rounded=0;whiteSpace=wrap;html=1;fontSize=16;fillColor=#d5e8d4;strokeColor=#82b366;" vertex="1" parent="1">
          <mxGeometry x="-1228.8999999999996" y="580" width="69.11" height="44" as="geometry" />
        </mxCell>
        <mxCell id="AG-kQNDHsoZw1lX50ARX-222" style="edgeStyle=orthogonalEdgeStyle;rounded=0;orthogonalLoop=1;jettySize=auto;html=1;exitX=0.5;exitY=1;exitDx=0;exitDy=0;entryX=0.5;entryY=0;entryDx=0;entryDy=0;" edge="1" parent="1" source="AG-kQNDHsoZw1lX50ARX-219" target="AG-kQNDHsoZw1lX50ARX-217">
          <mxGeometry relative="1" as="geometry" />
        </mxCell>
        <mxCell id="AG-kQNDHsoZw1lX50ARX-219" value="" style="ellipse;whiteSpace=wrap;html=1;aspect=fixed;" vertex="1" parent="1">
          <mxGeometry x="-1215.9899999999998" y="510" width="40" height="40" as="geometry" />
        </mxCell>
        <mxCell id="AG-kQNDHsoZw1lX50ARX-227" style="edgeStyle=orthogonalEdgeStyle;rounded=0;orthogonalLoop=1;jettySize=auto;html=1;exitX=0.5;exitY=0;exitDx=0;exitDy=0;entryX=0;entryY=0.5;entryDx=0;entryDy=0;" edge="1" parent="1" source="AG-kQNDHsoZw1lX50ARX-225" target="AG-kQNDHsoZw1lX50ARX-206">
          <mxGeometry relative="1" as="geometry" />
        </mxCell>
        <mxCell id="AG-kQNDHsoZw1lX50ARX-225" value="index ++" style="rounded=0;whiteSpace=wrap;html=1;fontSize=16;fillColor=#d5e8d4;strokeColor=#82b366;" vertex="1" parent="1">
          <mxGeometry x="-1666.37" y="208" width="76" height="44" as="geometry" />
        </mxCell>
        <mxCell id="AG-kQNDHsoZw1lX50ARX-256" value="true" style="edgeStyle=orthogonalEdgeStyle;rounded=0;orthogonalLoop=1;jettySize=auto;html=1;exitX=1;exitY=0.5;exitDx=0;exitDy=0;entryX=0.5;entryY=0;entryDx=0;entryDy=0;" edge="1" parent="1" source="AG-kQNDHsoZw1lX50ARX-229" target="AG-kQNDHsoZw1lX50ARX-230">
          <mxGeometry relative="1" as="geometry" />
        </mxCell>
        <mxCell id="AG-kQNDHsoZw1lX50ARX-258" value="false" style="edgeStyle=orthogonalEdgeStyle;rounded=0;orthogonalLoop=1;jettySize=auto;html=1;exitX=0;exitY=0.5;exitDx=0;exitDy=0;entryX=1;entryY=0.5;entryDx=0;entryDy=0;" edge="1" parent="1" source="AG-kQNDHsoZw1lX50ARX-229" target="AG-kQNDHsoZw1lX50ARX-257">
          <mxGeometry relative="1" as="geometry" />
        </mxCell>
        <mxCell id="AG-kQNDHsoZw1lX50ARX-229" value="IF(sos_flag == 1)" style="rhombus;whiteSpace=wrap;html=1;fillColor=#fff2cc;strokeColor=#d6b656;" vertex="1" parent="1">
          <mxGeometry x="-1511.8899999999999" y="663" width="161" height="90" as="geometry" />
        </mxCell>
        <mxCell id="AG-kQNDHsoZw1lX50ARX-232" style="edgeStyle=orthogonalEdgeStyle;rounded=0;orthogonalLoop=1;jettySize=auto;html=1;exitX=0.5;exitY=1;exitDx=0;exitDy=0;entryX=0.5;entryY=0;entryDx=0;entryDy=0;" edge="1" parent="1" source="AG-kQNDHsoZw1lX50ARX-230" target="AG-kQNDHsoZw1lX50ARX-231">
          <mxGeometry relative="1" as="geometry" />
        </mxCell>
        <mxCell id="AG-kQNDHsoZw1lX50ARX-230" value="index = 0" style="rounded=0;whiteSpace=wrap;html=1;fontSize=16;fillColor=#d5e8d4;strokeColor=#82b366;" vertex="1" parent="1">
          <mxGeometry x="-1293.6099999999997" y="770" width="99.25" height="44" as="geometry" />
        </mxCell>
        <mxCell id="AG-kQNDHsoZw1lX50ARX-253" value="true" style="edgeStyle=orthogonalEdgeStyle;rounded=0;orthogonalLoop=1;jettySize=auto;html=1;exitX=0.5;exitY=1;exitDx=0;exitDy=0;entryX=0.5;entryY=0;entryDx=0;entryDy=0;" edge="1" parent="1" source="AG-kQNDHsoZw1lX50ARX-231" target="AG-kQNDHsoZw1lX50ARX-233">
          <mxGeometry relative="1" as="geometry" />
        </mxCell>
        <mxCell id="AG-kQNDHsoZw1lX50ARX-261" value="false" style="edgeStyle=orthogonalEdgeStyle;rounded=0;orthogonalLoop=1;jettySize=auto;html=1;exitX=1;exitY=0.5;exitDx=0;exitDy=0;entryX=1;entryY=0.5;entryDx=0;entryDy=0;" edge="1" parent="1" source="AG-kQNDHsoZw1lX50ARX-231" target="AG-kQNDHsoZw1lX50ARX-203">
          <mxGeometry relative="1" as="geometry">
            <Array as="points">
              <mxPoint x="-614.63" y="905" />
              <mxPoint x="-614.63" y="-125" />
            </Array>
          </mxGeometry>
        </mxCell>
        <mxCell id="AG-kQNDHsoZw1lX50ARX-231" value="index &amp;lt; SCH_MAX_TASK" style="rhombus;whiteSpace=wrap;html=1;fillColor=#fff2cc;strokeColor=#d6b656;" vertex="1" parent="1">
          <mxGeometry x="-1324.4800000000005" y="860" width="161" height="90" as="geometry" />
        </mxCell>
        <mxCell id="AG-kQNDHsoZw1lX50ARX-247" value="true" style="edgeStyle=orthogonalEdgeStyle;rounded=0;orthogonalLoop=1;jettySize=auto;html=1;exitX=1;exitY=0.5;exitDx=0;exitDy=0;entryX=0.5;entryY=0;entryDx=0;entryDy=0;" edge="1" parent="1" source="AG-kQNDHsoZw1lX50ARX-233" target="AG-kQNDHsoZw1lX50ARX-236">
          <mxGeometry relative="1" as="geometry" />
        </mxCell>
        <mxCell id="AG-kQNDHsoZw1lX50ARX-249" value="fasle" style="edgeStyle=orthogonalEdgeStyle;rounded=0;orthogonalLoop=1;jettySize=auto;html=1;exitX=0;exitY=0.5;exitDx=0;exitDy=0;entryX=0;entryY=0.5;entryDx=0;entryDy=0;" edge="1" parent="1" source="AG-kQNDHsoZw1lX50ARX-233" target="AG-kQNDHsoZw1lX50ARX-248">
          <mxGeometry relative="1" as="geometry" />
        </mxCell>
        <mxCell id="AG-kQNDHsoZw1lX50ARX-233" value="IF&lt;br&gt;(sos_database[index].task != NULL)" style="rhombus;whiteSpace=wrap;html=1;fillColor=#fff2cc;strokeColor=#d6b656;" vertex="1" parent="1">
          <mxGeometry x="-1375.4799999999996" y="980" width="262.99" height="80" as="geometry" />
        </mxCell>
        <mxCell id="AG-kQNDHsoZw1lX50ARX-234" value="sos_database[index].delay --" style="rounded=0;whiteSpace=wrap;html=1;fontSize=16;fillColor=#d5e8d4;strokeColor=#82b366;" vertex="1" parent="1">
          <mxGeometry x="-1244.9899999999998" y="1172" width="230" height="44" as="geometry" />
        </mxCell>
        <mxCell id="AG-kQNDHsoZw1lX50ARX-237" value="fasle" style="edgeStyle=orthogonalEdgeStyle;rounded=0;orthogonalLoop=1;jettySize=auto;html=1;exitX=0;exitY=0.5;exitDx=0;exitDy=0;entryX=0.5;entryY=0;entryDx=0;entryDy=0;" edge="1" parent="1" source="AG-kQNDHsoZw1lX50ARX-236" target="AG-kQNDHsoZw1lX50ARX-234">
          <mxGeometry relative="1" as="geometry" />
        </mxCell>
        <mxCell id="AG-kQNDHsoZw1lX50ARX-245" value="true" style="edgeStyle=orthogonalEdgeStyle;rounded=0;orthogonalLoop=1;jettySize=auto;html=1;exitX=1;exitY=0.5;exitDx=0;exitDy=0;entryX=0.5;entryY=0;entryDx=0;entryDy=0;" edge="1" parent="1" source="AG-kQNDHsoZw1lX50ARX-236" target="AG-kQNDHsoZw1lX50ARX-238">
          <mxGeometry relative="1" as="geometry" />
        </mxCell>
        <mxCell id="AG-kQNDHsoZw1lX50ARX-236" value="IF&lt;br&gt;(sos_database[index].delay == 0)" style="rhombus;whiteSpace=wrap;html=1;fillColor=#fff2cc;strokeColor=#d6b656;" vertex="1" parent="1">
          <mxGeometry x="-1095.2199999999998" y="1070" width="262.99" height="80" as="geometry" />
        </mxCell>
        <mxCell id="AG-kQNDHsoZw1lX50ARX-244" style="edgeStyle=orthogonalEdgeStyle;rounded=0;orthogonalLoop=1;jettySize=auto;html=1;exitX=0.5;exitY=1;exitDx=0;exitDy=0;entryX=0.5;entryY=0;entryDx=0;entryDy=0;" edge="1" parent="1" source="AG-kQNDHsoZw1lX50ARX-238" target="AG-kQNDHsoZw1lX50ARX-239">
          <mxGeometry relative="1" as="geometry" />
        </mxCell>
        <mxCell id="AG-kQNDHsoZw1lX50ARX-238" value="sos_database[index].state=ready" style="rounded=0;whiteSpace=wrap;html=1;fontSize=16;fillColor=#d5e8d4;strokeColor=#82b366;" vertex="1" parent="1">
          <mxGeometry x="-867.5799999999998" y="1172" width="275.74" height="44" as="geometry" />
        </mxCell>
        <mxCell id="AG-kQNDHsoZw1lX50ARX-241" value="true" style="edgeStyle=orthogonalEdgeStyle;rounded=0;orthogonalLoop=1;jettySize=auto;html=1;exitX=1;exitY=0.5;exitDx=0;exitDy=0;entryX=0;entryY=0.5;entryDx=0;entryDy=0;" edge="1" parent="1" source="AG-kQNDHsoZw1lX50ARX-239" target="AG-kQNDHsoZw1lX50ARX-240">
          <mxGeometry relative="1" as="geometry" />
        </mxCell>
        <mxCell id="AG-kQNDHsoZw1lX50ARX-243" value="false" style="edgeStyle=orthogonalEdgeStyle;rounded=0;orthogonalLoop=1;jettySize=auto;html=1;exitX=0;exitY=0.5;exitDx=0;exitDy=0;entryX=1;entryY=0.5;entryDx=0;entryDy=0;" edge="1" parent="1" source="AG-kQNDHsoZw1lX50ARX-239" target="AG-kQNDHsoZw1lX50ARX-242">
          <mxGeometry relative="1" as="geometry" />
        </mxCell>
        <mxCell id="AG-kQNDHsoZw1lX50ARX-239" value="IF&lt;br&gt;(sos_database[index].period &amp;gt; 0)" style="rhombus;whiteSpace=wrap;html=1;fillColor=#fff2cc;strokeColor=#d6b656;" vertex="1" parent="1">
          <mxGeometry x="-861.2099999999995" y="1262" width="262.99" height="80" as="geometry" />
        </mxCell>
        <mxCell id="AG-kQNDHsoZw1lX50ARX-251" style="edgeStyle=orthogonalEdgeStyle;rounded=0;orthogonalLoop=1;jettySize=auto;html=1;exitX=0.5;exitY=1;exitDx=0;exitDy=0;entryX=1;entryY=0.5;entryDx=0;entryDy=0;" edge="1" parent="1" source="AG-kQNDHsoZw1lX50ARX-240" target="AG-kQNDHsoZw1lX50ARX-248">
          <mxGeometry relative="1" as="geometry" />
        </mxCell>
        <mxCell id="AG-kQNDHsoZw1lX50ARX-240" value="sos_database[index].delay = sos_database[index].period" style="rounded=0;whiteSpace=wrap;html=1;fontSize=16;fillColor=#d5e8d4;strokeColor=#82b366;" vertex="1" parent="1">
          <mxGeometry x="-549.9900000000001" y="1280" width="230" height="44" as="geometry" />
        </mxCell>
        <mxCell id="AG-kQNDHsoZw1lX50ARX-250" style="edgeStyle=orthogonalEdgeStyle;rounded=0;orthogonalLoop=1;jettySize=auto;html=1;exitX=0.5;exitY=1;exitDx=0;exitDy=0;entryX=0.5;entryY=0;entryDx=0;entryDy=0;" edge="1" parent="1" source="AG-kQNDHsoZw1lX50ARX-242" target="AG-kQNDHsoZw1lX50ARX-248">
          <mxGeometry relative="1" as="geometry" />
        </mxCell>
        <mxCell id="AG-kQNDHsoZw1lX50ARX-242" value="do nothing" style="rounded=0;whiteSpace=wrap;html=1;fontSize=16;fillColor=#d5e8d4;strokeColor=#82b366;" vertex="1" parent="1">
          <mxGeometry x="-1003.61" y="1280" width="89.74" height="44" as="geometry" />
        </mxCell>
        <mxCell id="AG-kQNDHsoZw1lX50ARX-254" style="edgeStyle=orthogonalEdgeStyle;rounded=0;orthogonalLoop=1;jettySize=auto;html=1;exitX=0;exitY=0.5;exitDx=0;exitDy=0;entryX=0;entryY=0.5;entryDx=0;entryDy=0;" edge="1" parent="1" source="AG-kQNDHsoZw1lX50ARX-246" target="AG-kQNDHsoZw1lX50ARX-231">
          <mxGeometry relative="1" as="geometry">
            <Array as="points">
              <mxPoint x="-1459.9899999999998" y="1502" />
              <mxPoint x="-1459.9899999999998" y="905" />
            </Array>
          </mxGeometry>
        </mxCell>
        <mxCell id="AG-kQNDHsoZw1lX50ARX-246" value="index++" style="rounded=0;whiteSpace=wrap;html=1;fontSize=16;fillColor=#d5e8d4;strokeColor=#82b366;" vertex="1" parent="1">
          <mxGeometry x="-1303.3499999999995" y="1480" width="99.25" height="44" as="geometry" />
        </mxCell>
        <mxCell id="AG-kQNDHsoZw1lX50ARX-252" style="edgeStyle=orthogonalEdgeStyle;rounded=0;orthogonalLoop=1;jettySize=auto;html=1;exitX=0.5;exitY=1;exitDx=0;exitDy=0;entryX=0.5;entryY=0;entryDx=0;entryDy=0;" edge="1" parent="1" source="AG-kQNDHsoZw1lX50ARX-248" target="AG-kQNDHsoZw1lX50ARX-246">
          <mxGeometry relative="1" as="geometry" />
        </mxCell>
        <mxCell id="AG-kQNDHsoZw1lX50ARX-248" value="" style="ellipse;whiteSpace=wrap;html=1;aspect=fixed;" vertex="1" parent="1">
          <mxGeometry x="-1273.7200000000003" y="1400" width="40" height="40" as="geometry" />
        </mxCell>
        <mxCell id="AG-kQNDHsoZw1lX50ARX-257" value="do nothing" style="rounded=0;whiteSpace=wrap;html=1;fontSize=16;fillColor=#d5e8d4;strokeColor=#82b366;" vertex="1" parent="1">
          <mxGeometry x="-1670" y="686" width="89.74" height="44" as="geometry" />
        </mxCell>
      </root>
    </mxGraphModel>
  </diagram>
</mxfile>
